<?xml version="1.0" standalone="no"?>
<!DOCTYPE svg PUBLIC "-//W3C//DTD SVG 20010904//EN"
 "http://www.w3.org/TR/2001/REC-SVG-20010904/DTD/svg10.dtd">
<svg version="1.0" xmlns="http://www.w3.org/2000/svg"
 width="442.000000pt" height="442.000000pt" viewBox="0 0 442.000000 442.000000"
 preserveAspectRatio="xMidYMid meet">
<metadata>
Created by potrace 1.15, written by Peter Selinger 2001-2017
</metadata>
<g transform="translate(0.000000,442.000000) scale(0.100000,-0.100000)"
fill="#000000" stroke="none">
<path d="M3750 4256 c-75 -21 -119 -46 -160 -93 -125 -142 -77 -348 103 -439
92 -47 246 -42 282 10 21 29 18 78 -6 104 -18 21 -26 22 -97 16 -58 -4 -86 -2
-114 10 -102 44 -112 166 -18 221 82 47 258 11 349 -71 152 -137 116 -445 -63
-536 -97 -49 -246 -32 -451 54 -332 139 -426 168 -570 175 -149 8 -269 -30
-367 -117 -26 -23 -51 -39 -56 -36 -5 3 -58 10 -118 16 -127 13 -297 3 -609
-34 -243 -30 -385 -40 -385 -29 0 4 15 22 33 40 57 55 90 127 95 209 8 129
-33 228 -119 286 -35 23 -52 28 -106 28 -77 0 -124 -21 -176 -79 -72 -80 -90
-171 -58 -293 11 -43 31 -101 45 -129 l24 -51 -37 -15 c-54 -24 -175 -53 -182
-45 -3 4 -12 36 -18 70 -24 123 -93 250 -166 306 -123 94 -280 115 -402 54
-141 -70 -161 -264 -46 -431 67 -97 205 -155 387 -164 l109 -6 -6 -91 c-4 -77
-29 -176 -43 -176 -3 0 -26 11 -52 24 -122 62 -262 82 -354 51 -129 -45 -207
-235 -138 -339 55 -82 157 -122 288 -114 82 5 149 31 210 82 16 15 33 26 37
26 15 0 -4 -245 -30 -400 -32 -190 -31 -357 3 -453 l21 -57 -29 -63 c-73 -154
-68 -319 17 -647 68 -262 75 -302 70 -415 -6 -133 -43 -212 -134 -288 -74 -61
-128 -82 -213 -82 -66 1 -83 5 -138 35 -113 60 -172 152 -172 267 0 64 35 141
77 171 111 78 245 17 215 -97 -16 -66 31 -122 91 -107 38 9 58 46 64 116 13
144 -93 266 -243 278 -214 17 -395 -198 -357 -425 22 -129 116 -263 230 -330
66 -38 178 -73 237 -73 140 0 321 109 413 247 104 157 117 341 42 617 -88 324
-107 436 -90 542 5 37 12 68 15 71 2 3 21 -14 41 -36 95 -105 214 -133 327
-78 99 48 158 140 158 244 0 104 -60 185 -163 219 -73 24 -195 15 -268 -19
-31 -15 -58 -27 -61 -27 -4 0 -12 23 -18 51 -15 60 -7 215 17 329 40 192 45
443 11 536 -14 39 -13 42 9 75 38 55 65 160 67 258 l1 87 88 21 c48 12 116 34
150 50 l62 29 55 -23 c75 -30 190 -30 440 2 384 49 702 57 684 17 -27 -62 -43
-123 -44 -162 -1 -200 195 -333 356 -240 126 72 167 243 89 376 -25 42 -97
114 -115 114 -26 0 -5 23 42 45 141 65 311 35 662 -119 293 -129 442 -145 612
-65 234 110 325 432 192 681 -59 111 -169 186 -332 228 -89 23 -131 24 -196 6z
m-2341 -358 c44 -46 51 -132 17 -197 -8 -14 -32 -43 -54 -64 l-40 -39 -22 59
c-28 72 -37 162 -20 203 25 59 83 78 119 38z m-754 -156 c37 -18 71 -43 89
-66 33 -44 73 -138 82 -196 l7 -42 -79 7 c-196 16 -275 63 -315 183 -40 119
76 180 216 114z m2036 -395 c49 -33 79 -82 79 -131 0 -49 -18 -79 -59 -95 -61
-26 -131 48 -115 123 8 42 45 126 54 126 4 0 22 -10 41 -23z m-2048 -423 c37
-14 67 -28 67 -30 0 -10 -57 -56 -95 -76 -75 -40 -213 -22 -230 31 -11 37 25
92 70 104 36 10 118 -3 188 -29z m587 -1083 c48 -35 31 -113 -33 -151 -41 -25
-71 -25 -112 0 -31 19 -105 105 -105 121 0 10 60 39 103 50 46 11 118 2 147
-20z"/>
</g>
</svg>
